<svg xmlns="http://www.w3.org/2000/svg" width="2500" height="1949">
  <defs>
    <linearGradient x1="24.93%" y1="31.458%" x2="85.77%" y2="64.801%" id="a">
      <stop stop-color="#FFBC9C" offset="0%"/>
      <stop stop-color="#FFBC9C" offset="69.827%"/>
      <stop stop-color="#FFA67A" offset="100%"/>
    </linearGradient>
    <linearGradient x1="25.463%" y1="13.805%" x2="87.493%" y2="83.462%" id="b">
      <stop stop-color="#FFCB87" offset="0%"/>
      <stop stop-color="#FFCB87" offset="9.734%"/>
      <stop stop-color="#FFBC9C" offset="47.658%"/>
      <stop stop-color="#FFBC9C" offset="100%"/>
    </linearGradient>
    <linearGradient x1="60.683%" y1="71.273%" x2="60.683%" y2="100%" id="c">
      <stop stop-color="#F28773" offset="0%"/>
      <stop stop-color="#F67853" offset="100%"/>
    </linearGradient>
    <linearGradient x1="71.653%" y1="37.116%" x2="0%" y2="62.884%" id="d">
      <stop stop-color="#F28773" offset="0%"/>
      <stop stop-color="#F28773" offset="29.843%"/>
      <stop stop-color="#F6A66A" offset="100%"/>
    </linearGradient>
    <linearGradient x1="71.653%" y1="36.305%" x2="0%" y2="63.695%" id="e">
      <stop stop-color="#F28773" offset="0%"/>
      <stop stop-color="#F28773" offset="29.843%"/>
      <stop stop-color="#F6A66A" offset="100%"/>
    </linearGradient>
    <linearGradient x1="71.653%" y1="34.913%" x2="0%" y2="65.087%" id="f">
      <stop stop-color="#F28773" offset="0%"/>
      <stop stop-color="#F28773" offset="29.843%"/>
      <stop stop-color="#F6A66A" offset="100%"/>
    </linearGradient>
    <linearGradient x1="45.253%" y1="41.162%" x2="100%" y2="61.381%" id="g">
      <stop stop-color="#F57A55" offset="0%"/>
      <stop stop-color="#F28773" offset="43.007%"/>
      <stop stop-color="#FA9F6E" offset="100%"/>
    </linearGradient>
    <linearGradient x1="45.253%" y1="26.51%" x2="100%" y2="80.249%" id="h">
      <stop stop-color="#F57A55" offset="0%"/>
      <stop stop-color="#F28773" offset="43.007%"/>
      <stop stop-color="#FA9F6E" offset="100%"/>
    </linearGradient>
    <linearGradient x1="45.253%" y1="19.359%" x2="100%" y2="89.458%" id="i">
      <stop stop-color="#F57A55" offset="0%"/>
      <stop stop-color="#F28773" offset="43.007%"/>
      <stop stop-color="#FA9F6E" offset="100%"/>
    </linearGradient>
    <linearGradient x1="50%" y1="0%" x2="50%" y2="100%" id="j">
      <stop stop-color="#FFE768" offset="0%"/>
      <stop stop-color="#FFE768" offset="33.871%"/>
      <stop stop-color="#FFBD4A" offset="61.264%"/>
      <stop stop-color="#FFBD4A" offset="100%"/>
    </linearGradient>
    <linearGradient x1="61.494%" y1="17.53%" x2="43.602%" y2="93.757%" id="k">
      <stop stop-color="#F39270" offset="0%"/>
      <stop stop-color="#F39270" offset="18.9%"/>
      <stop stop-color="#F47E5F" offset="100%"/>
    </linearGradient>
    <linearGradient x1="50%" y1="0%" x2="64.987%" y2="85.976%" id="l">
      <stop stop-color="#564341" offset="0%"/>
      <stop stop-color="#564341" offset="48.492%"/>
      <stop stop-color="#845750" offset="100%"/>
    </linearGradient>
    <linearGradient x1="50%" y1="0%" x2="65.534%" y2="85.976%" id="m">
      <stop stop-color="#564341" offset="0%"/>
      <stop stop-color="#564341" offset="48.492%"/>
      <stop stop-color="#845750" offset="100%"/>
    </linearGradient>
    <linearGradient x1="50%" y1="0%" x2="50%" y2="100%" id="n">
      <stop stop-color="#FFFFFE" offset="0%"/>
      <stop stop-color="#FFF" offset="100%"/>
    </linearGradient>
    <linearGradient x1="30.319%" y1="23.83%" x2="73.537%" y2="74.018%" id="o">
      <stop stop-color="#FFF9CE" offset="0%"/>
      <stop stop-color="#FFF" offset="100%"/>
    </linearGradient>
    <linearGradient x1="43.452%" y1="10.784%" x2="55.363%" y2="75.139%" id="p">
      <stop stop-color="#C35C45" offset="0%"/>
      <stop stop-color="#B76455" offset="100%"/>
    </linearGradient>
    <linearGradient x1="0%" y1="87.614%" x2="100%" y2="20.499%" id="q">
      <stop stop-color="#C45C44" offset="0%"/>
      <stop stop-color="#AD6161" offset="100%"/>
    </linearGradient>
    <linearGradient x1="35.829%" y1="19.881%" x2="61.606%" y2="69.307%" id="r">
      <stop stop-color="#C35C45" offset="0%"/>
      <stop stop-color="#B76455" offset="100%"/>
    </linearGradient>
    <linearGradient x1="82.023%" y1="43.963%" x2="21.131%" y2="64.645%" id="s">
      <stop stop-color="#AA6160" offset="0%"/>
      <stop stop-color="#B36F5F" offset="100%"/>
    </linearGradient>
    <linearGradient x1="35.829%" y1="39.719%" x2="61.606%" y2="56.59%" id="t">
      <stop stop-color="#C35C45" offset="0%"/>
      <stop stop-color="#B76455" offset="100%"/>
    </linearGradient>
    <linearGradient x1="82.023%" y1="44.519%" x2="21.131%" y2="63.295%" id="u">
      <stop stop-color="#AA6160" offset="0%"/>
      <stop stop-color="#B36F5F" offset="100%"/>
    </linearGradient>
    <linearGradient x1="76.184%" y1="12.452%" x2="41.208%" y2="96.111%" id="v">
      <stop stop-color="#AE605D" offset="0%"/>
      <stop stop-color="#AF615E" offset="100%"/>
      <stop stop-color="#BC5D4C" offset="100%"/>
    </linearGradient>
    <linearGradient x1="82.023%" y1="44.835%" x2="21.131%" y2="62.529%" id="w">
      <stop stop-color="#AA6160" offset="0%"/>
      <stop stop-color="#B36F5F" offset="100%"/>
    </linearGradient>
  </defs>
  <g fill-rule="nonzero" fill="none">
    <path d="M2197.28 1422.206v-93.082l-4.195-72.387-17.187-68.708-16.445-46.36-25.095-41.81-20.044-36.903-18.797 46.159-34.117 56.803-26.619 33.452-34.261 27.647-63.913 35.008h-60.688l-57.993-27.467-51.405-28.732-36.949-47.216-11.24-36-20.547-122.05-8.778 25.314-31.56 59.097-37.213 53.005-51.213 45.698-41.197 22.152-55.722 15.106-41.085-1.638-113.551-50.758-55.825-68.677-18.694-36.903-31.003 102.962-47.159 77.814-84.001 84.448-88.503 54.203-79.198 28.592c2.986 30.573 12.526 52.24 28.62 65 40.934 32.452 67.317 88.683 105.284 116.792 48.497 35.905 93.474 52.975 137.179 80.456 41.237 25.928 50.947 73.796 87.09 93.86 135.351 75.141 260.863 84.504 293.116 79.54 38.412 7.472 90.642-1.52 129.358-1.129 26.853-5.963 90.865-11.927 124.196-26.008 52.836-22.32 137.457-52.239 188.13-85.273 60.092-39.174 98.989-97.43 113.645-114.836 14.657-17.405 29.106-51.022 39.752-70.048 12.167-23.848 18.267-48.03 26.74-73.355l11.087-53.768Z" fill="url(#a)"/>
    <path d="M1251.993 716.26C1021.347 103.384 219.65 152.427 33.76 769.344l-9.864 48.39-14.035 32.189c6.605 70.718 9.777 125.234 95.335 131.662l27.375-2.65 12.21 9.774-6.388 17.202c81.734 241.867 319.636 407.543 570.4 425.83l32.025 6.907 39.02-2.476c-12.283 13.263 49.957.59 186.72-38.02l122.705-79.612 61.532-52.599 56.27-89.984L1249.5 1047.9l8.098-117.409V798.438c-1.12-26.207-2.989-53.6-5.605-82.177Z" fill="url(#b)"/>
    <path d="M1089.264 1318.539c65.743 104.948 336.669 43.612 336.669-89.831 0 0-75.477-16.507-108.023-48.26l-72.913-87.226c-30.417 105.47-99.028 191.174-155.733 225.317ZM1936.716 1270.322c-5.04 108.075 166.336 158.551 248.591 108.293 4.737-101.517-8.212-209.505-70.697-291.257-20.205 22.675-22.204 71.587-74.39 118.457-50.101 45.003-103.504 64.507-103.504 64.507ZM165.9 1004.477c97.16-7.515 175.243-30.668 263.191 99.909 60.703 90.135 449.211-55.167 470.85-26.976 9.125 11.946 24.551 51.823 27.202 60.815.738 2.476 11.688-49.347 1.086-78.711 0 0-1.173-28.54-28.375-23.37-370.084 70.327-491.707 140.654-509.827-151.906-1.999-32.275-149.606 58.208-247.505 89.832 10.777 19.851-.956 33.143 23.378 30.407Z" fill="#F28773"/>
    <path d="M430.003 1335.958c-4.953.39 1.13 4.648 9.995 9.6 33.632 18.722 156.428 55.905 215.306 71.283 262.974 68.763 605.597-142.523 596.515-439.73 0 0 2.26-178.968-3.52-209.984-4.432-23.76-72.565-194.779-122.318-255.246 181.153 364.625-210.05 856.743-695.978 824.077Z" fill="url(#c)"/>
    <path d="M908.067 1441.948c-12.036-19.72-181.805 12.641-259.498 106.556-37.673 39.876 14.948 60.64 53.273 54.993 113.497-28.756 97.811-96.912 264.625-78.363 1.999.304-29.2-35.273-58.4-83.186Z" fill="url(#d)"/>
    <path d="M984.804 1543.552c-78.388-29.626-199.316 1.867-260.845 83.228-21.726 28.713-55.228 113.636-17.598 105.296 94.9-21.025 163.294-20.72 175.417-31.884 44.365-40.963 75.694-70.284 189.8-74.498-13.644-18.244-57.661-71.152-86.774-82.142Z" fill="url(#e)"/>
    <path d="M1134.324 1644.286c-82.256-30.58-168.987-13.77-234.774 45.785-143.566 130.055-123.926 209.809-123.926 209.809l14.904 25.585c39.281 15.377 208.615-33.057 255.457-46.48 89.251-25.585 184.716-34.88 273.272-62.942 0 .043-157.341-151.949-184.933-171.757Z" fill="url(#f)"/>
    <path d="M1848.855 1825.339c113.759 8.992 224.345 45.09 330.5 85.053l26.288 8.774 21.422-3.909c29.635-47.305-17.207-96.173-47.059-130.794-27.94-29.017-74.608-42.136-113.324-49.65-80.995-7.472-148.65 56.687-217.827 90.526Z" fill="url(#g)"/>
    <path d="M2012.627 1742.11c68.394-20.33 143.871 2.954 193.885 59.033 0 0 38.977 24.152 50.1 17.028 10.56-6.733-1.911-53.82-7.734-64.897-34.936-66.461-62.658-107.207-131.27-126.754-34.197 38.052-67.09 80.665-104.98 115.59Z" fill="url(#h)"/>
    <path d="M2132.078 1622.089c95.595 30.364 69.263 64.463 156.602 84.88 5.476 1.259 5.997-23.458 5.997-29.061 0-26.715-73.695-88.963-113.758-115.026-16.252-10.556-56.271 56.861-48.841 59.207Z" fill="url(#i)"/>
    <path d="M1765.035 524.565c4.954 31.928-4.997 123.714-4.997 123.714 269.275-70.762 636.709-469.92 93.075-393.12 57.314-83.273 174.332-128.102 218.262-223.71l-2.39-11.642c-243.594 11.555-487.666 137.484-638.316 330.786l-11.95 35.403 16.208 40.832c110.934 33.97 231.471 24.196 346.794 33.361 0 0-19.858 54.907-16.686 64.376Z" fill="url(#j)"/>
    <path d="M2204.296 1429.568c103.547-12.293 195.449-87.05 226.648-186.7 158.384-144.477-62.05-527.129-274.533-441.989-9.255 19.982-7.951 50.346-7.995 71.805-.043 52.647-37.5 209.027-37.5 209.027s62.225 69.458 73.392 137.614c0 0 22.595 96.434 16.772 155.988l3.216 54.255Z" fill="url(#k)"/>
    <path d="M1710.242 959.865c-47.58 159.594 128.793 194.65 248.678 136.267 269.231-213.979 197.23-712.916-205.617-415.839-22.725 36.532-17.033 133.922-17.946 138.657-6.56 35.185-22.856 133.357-25.115 140.915Z" fill="url(#l)"/>
    <path d="M1257.946 992.488c10.255 74.584 153.474 89.657 228.168 56.86 174.68-58.511 227.257-398.723 157.602-500.066-6.344-9.252-93.335-21.806-128.793-25.238-98.897-9.6-216.35 82.75-267.189 213.371-13.383 34.404 5.171 78.233 8.691 113.81 4.867 49.433-3.433 105.339 1.52 141.263Z" fill="url(#m)"/>
    <path d="M720.396 643.37c-63.919 29.104-140.438 149.994-33.198 173.93 194.667 33.23 256.587-260.069 33.198-173.93Z" fill="url(#n)"/>
    <path d="M415.925 415.838c-107.849 31.32-221.39 156.727-149.65 269.103 79.561 112.941 263.495 83.272 351.617-5.3 173.549-170.062 0-353.59-201.967-263.803Z" fill="url(#o)"/>
    <path d="M1254.252 1024.068s265.625 184.31 396.33-165.068c33.371-89.223 18.337-222.406 19.466-281.874 115.67 55.993 28.592 374.833 20.336 413.103-28.983 134.573-161.121 239.955-271.708 210.678-166.379-44.004-164.424-176.84-164.424-176.84ZM1710.372 1087.14l23.117 8.601c72.174 54.082 175.939 35.012 246.462-12.553 102.504-83.186 111.934-194.997 151.215-310.066l7.126 7.775c15.773 118.892-12.862 240.781-55.098 351.68-93.38 186.874-340.232 171.15-372.822-45.436Z" fill="#FFF"/>
    <path d="M1763.602 820.08c-17.642 41.83-23.9 94.696-11.472 138.743 29.635 68.372 111.064 74.236 158.34 20.242 135.616-145.172-27.07-390.645-146.868-158.986ZM1520.138 818.863c25.637-298.12-286.178-135.833-207.312 79.102 67.569 108.336 183.5 10.512 207.312-79.102Z" fill="#FFF"/>
    <path d="M2174.14 1601.455c2.868 19.244 16.077 37.662 16.077 37.662l-28.591-19.765-19.51-9.383 25.158-41.614 10.299 5.17s-5.736 12.336-3.433 27.93Z" fill="url(#p)"/>
    <path d="M2215.072 1290.695s18.076 60.553 52.49 56.861c65.005-6.994 128.707-102.863 128.707-102.863s8.343 4.822 9.255 7.689c3.824 11.945-9.69 36.575-15.469 47.695-6.779 12.989-26.593 35.273-37.5 45.133-12.818 11.598-57.27 38.66-57.27 38.66s-35.805 15.508-47.971 20.2c-19.51 7.515-36.066 9.904-35.805 9.426 3.215-5.908 3.563-122.801 3.563-122.801Z" fill="url(#q)"/>
    <path d="M2114.48 1702.711c8.038 18.983 34.327 41.267 34.327 41.267l-66.178-19.851-32.806-3.172 57.27-63.724c-.044.087-.913 25.846 7.387 45.48Z" fill="url(#r)"/>
    <path d="M873.405 1907.693s184.616-55.031 258.92-129.312c50.796-50.78 9.168-114.765 17.25-111.16 50.188 22.545 65.657 55.95 95.509 92.265 13.687 16.637 72.913 55.558 72.913 55.558s-98.81 13.726-139.526 26.324c-72.696 22.458-305.066 66.325-305.066 66.325Z" fill="url(#s)"/>
    <path d="M2014.93 1774.69c7.909 41.787 17.99 53.212 96.16 92.828 2.738 1.39-46.06-15.03-121.666-33.882-25.55-6.342-101.679-18.723-101.679-18.723s55.054-21.806 69.22-31.058c17.424-11.338 62.875-30.668 62.875-30.668s-5.648 17.462-4.91 21.502Z" fill="url(#t)"/>
    <path d="M872.219 1689.94c-9.082 2.78-41.802 6.125-73.652 15.942-14.47 4.474-36.674 10.73-52.969 15.16-7.473 1.999-28.026 4.388-34.805-1.042-2.086-1.694-6.17-9.6-3.563-10.165 88.73-18.983 142.828-43.135 182.326-66.939 67.656-40.832 79.866-72.977 85.428-96.825 2.346-10.121 26.94 12.945 35.5 21.806 8.647 8.949 44.539 46.436 44.539 46.436s-64.092 12.163-83.733 17.854c-43.887 12.597-86.514 53.907-99.071 57.773Z" fill="url(#u)"/>
    <path d="M921.754 1093.265s-12.34-28.93-16.816-33.404c-6.126-6.125-22.595-.912-23.203-6.95-.739-7.602 23.681-5.864 30.634.608 7.821 7.341 9.385 39.746 9.385 39.746Z" fill="#AA6160"/>
    <path d="M869.177 1408.674s194.928-94.522 267.406-200.47c111.151-162.374 109.718-333.957 109.718-333.957s32.806 133.618-22.77 268.669c-98.68 239.738-354.354 265.758-354.354 265.758Z" fill="url(#v)"/>
    <path d="M640.922 1591.725c82.298-32.449 163.945-60.64 251.676-148.343 5.823-5.821 22.769 8.123 25.246 13.944 11.775 28.018 33.371 58.86 19.206 57.339-86.731-9.47-140.09 26.758-178.677 56.34-27.766 21.241-125.1 23.717-117.451 20.72Z" fill="url(#w)"/>
    <path d="M239.465 947.833c-2.043 4.647 104.937-36.793 120.102-24.804 16.686 13.249 30.504 46.697 30.504 46.697s.825-78.885-9.169-84.75c-5.475-3.214-26.419 5.474-38.325 11.034-31.025 14.509-101.896 48.956-103.112 51.823Z" fill="#AA6160"/>
    <path d="M2089.666 21.738c8.71 17.455-1.447 36.156-25.114 62.682-16.378 18.357-39.853 40.451-70.226 66.683a2069.405 2069.405 0 0 1-21.997 18.715c-12.756 10.709-25.986 21.608-42.12 34.75-2.414 1.965-9.63 7.825-17.127 13.917l-2.651 2.153c-4.413 3.585-8.74 7.102-12.06 9.803l-.45.36 2.869-.331c32.492-3.719 60.676-5.529 88.154-4.916l3.743.099c40.285 1.225 74.334 7.865 101.205 21.586 33.453 17.081 54.362 44.676 59.414 82.741 9.393 70.891-74.543 168.844-190.893 240.395 40.956.984 80.778 11.846 108.729 33.73 22.13 17.326 40.029 37.32 54.09 59.568l.403.643c.669.88 1.257 1.828 1.753 2.836 8.4 13.822 15.358 28.489 20.965 43.904 7.911 21.751 12.81 43.833 15.426 66.576 38.023-14.048 84.436-7.212 133.798 15.604 45.284 20.931 90.555 54.873 116.582 85.705 43.271 51.268 70.481 118.05 80.637 187.969 8.848 60.918 3.482 118.837-13.754 149.97-10.334 18.662-27.074 34.945-44.368 39.678l-.838.214-.056.414-.066.482-.139 1.002c-.115.832-.225 1.62-.291 2.072a129.396 129.396 0 0 1-1.136 6.665c-1.124 5.644-2.65 10.927-4.818 16.178a293.714 293.714 0 0 1-3.725 8.65c-6.954 15.455-14.391 28.293-22.474 39.474a193.73 193.73 0 0 1-9.84 12.488 277.038 277.038 0 0 1-4.152 4.743c-.69.773-2.97 3.308-3.413 3.802-46.143 51.667-126.913 91.191-177.618 93.36-5.55 27.041-13.384 53.538-23.474 79.13l-1.588 3.969-1.026 3.014a445.626 445.626 0 0 1-2.416 6.812c14.988 6.492 39.233 19.175 50.856 27.086 21.18 14.418 41.926 33.18 56.519 52.912 8.59 11.635 17.504 26.297 23.44 39.998 9.724 22.44 11.706 41.397-.148 55.77-10.607 12.888-27.733 15.185-48.378 10.961 9.883 19.3 15.695 31.848 19.828 43.954l.326.964c.322.964.635 1.926.938 2.89l.3.963c.198.643.393 1.288.583 1.934 7.468 25.288 5.5 45.705-11.749 58.407-6.47 4.753-15.664 5.864-26.237 4.201 17.978 39.415 16.96 78.053-12.374 92.613-15.744 7.837-34.488 5.241-64.375-5.092-5.699-1.97-21.083-7.885-37.55-14.248l-1.206-.466-1.21-.468-.606-.234-5.868-2.269-1.375-.532-1.372-.53c-12.1-4.68-23.7-9.159-31.406-12.059l-.856-.321a486.132 486.132 0 0 0-4.373-1.621c-33.375-12.148-63.85-21.328-95.354-28.097l-9.256-1.992-.788-.17c-3.413-.733-6.803-1.462-8.585-1.841a1572.482 1572.482 0 0 0-21.22-4.388c-34.523-6.867-64.299-11.21-92.577-12.805-19.551-1.103-37.519-.787-53.78 1.093a17.33 17.33 0 0 1-6.948-.6c-68.995 15.915-142.355 22.727-215.863 20.209-75.618-2.6-116.204-5.681-159.131-13.767-11.646-2.194-22.916-4.727-33.85-7.632a17.625 17.625 0 0 1-1.672-.286c-38.179-8.445-138.936 4.96-202.895 25.265-14.14 4.495-30.946 8.92-52.118 13.847-5.102 1.187-36.963 8.06-71.154 15.562l-2.096.46-4.043.889-3.564.784-1.783.393-1.782.392-4.447.982-1.774.392c-25.099 5.548-48.964 10.921-61.939 14.12a1327.822 1327.822 0 0 0-32.144 8.33c-1.976.54-11.144 3.062-13.73 3.77a1469.243 1469.243 0 0 1-15.325 4.116c-13.931 3.651-26.175 6.562-37.904 8.912-46.277 9.27-79.3 9.052-100.281-6.602-17.043-12.715-23.158-33.117-20.614-58.666 1.986-19.957 9.217-43.645 21.19-71.795 9.096-21.345 29.11-49.828 51.736-75.98l.73-.843-.735.193c-4.324 1.139-8.81 2.354-13.479 3.648-4.826 1.338-12.787 3.629-20.974 5.999l-1.294.375-1.296.375-2.286.663-.91.263-.906.263-.901.262c-10.637 3.086-20.096 5.838-21.668 6.238l-3.96 1.017c-1.353.348-2.541.65-3.63.925l-2.066.518c-.987.244-1.919.471-2.861.697-19.793 4.742-33.358 5.947-46.363 1.937-18.685-5.761-29.724-21.611-32.039-45.622-1.922-19.873 15.98-58.777 34.026-86.528a265.433 265.433 0 0 1-10.434 2.202c-37.249 7.061-64.82 3.965-78.91-17.482-16.553-25.164-2.946-55.894 28.045-89.675 21.226-23.137 51.184-47.115 69.169-56.472 7.53-3.926 16.362-8.093 26.012-12.231-93.057-2.56-188.57-24.376-277.355-64.433-174.41-78.688-299.752-216.562-336.035-383.074l-.838-3.936-1.318.174c-60.618 7.52-103.51-12.981-120.047-62.195l-.541-1.65c-17.123-53.518-1.701-137.59 46.313-251.58 71.507-169.789 191.403-293.047 341.318-360.206 139.304-62.406 297.66-72.552 443.346-30.233 148.504 43.137 273.815 137.67 351.314 269.962 24.694 42.153 44.261 87.519 58.478 135.772 12.616-26.672 30.355-55.072 51.2-80.996 45.016-55.985 98.836-94.698 153.966-104.517 129.78-23.124 239.237 21.521 283.528 111.763 3.319-19.948 6.505-44.285 9.132-69.238l.258-2.47c.128-1.235.255-2.472.38-3.71l.248-2.475.245-2.478.608-6.351c1.584-16.929 1.584-32.236-.627-49.259-.224-1.722-1.773-4.129-4.647-7.221-4.116-.17-7.145-.405-10.08-.663l-.924-.082-.925-.083-.794-.071c-3.991-.36-8.351-.735-15.497-1.024l-2.834-.115c-92.645-3.745-140.612-6.583-181.652-11.938l-2.991-.396-1.487-.202-2.96-.41c-2.46-.347-4.902-.703-7.336-1.07-61.948-9.344-97.984-24.516-109.35-53.387-9.697-24.562-.4-52.778 21.637-84.67 14.26-20.637 31.418-39.72 53.633-61.75 36.166-35.896 102.215-87.328 170.93-131.107 87.317-55.63 172.857-95.919 247.684-112.773 96.585-21.766 175.638-25.998 190.796 4.373ZM1037.06 1649.633l-1.823.204-3.644.424c-14.557 1.741-28.812 4.001-39.898 6.727-21.855 5.376-61.725 26.87-88.093 47.61-34.1 26.807-80.24 82.064-93.733 113.726-21.039 49.468-24.062 79.831-11.77 89.003 10.146 7.57 35.908 7.74 72.66.377 10.978-2.2 22.592-4.96 35.917-8.453a1436.02 1436.02 0 0 0 14.968-4.02c2.552-.698 11.72-3.22 13.735-3.772 10.559-2.885 21.512-5.72 32.99-8.55 13.292-3.276 37.553-8.74 62.931-14.35l4.015-.887 4.025-.887 2.013-.444 4.024-.885c36.173-7.952 70.936-15.444 76.017-16.626 20.353-4.737 36.343-8.946 49.47-13.12 37.472-11.896 85.75-21.493 129.37-26.206a341.193 341.193 0 0 1-24.703-15.332c-6.05-4.123-11.649-8.355-16.902-12.751-13.653-11.427-22.877-21.636-37.349-39.961-14.123-17.884-21.826-27.183-30.634-35.751l-.758-.733c-3.55-3.413-7.313-6.745-11.767-10.5-18.804-15.845-43.07-31.212-75.796-47.162l-1.169-.569c-5.367-1.476-34.616-.367-64.096 2.888Zm1014.538 102.147c-23.385.861-40.392 6.417-63.285 17.587a17.381 17.381 0 0 1-4.946 1.558c-12.873 7.717-26.226 15.001-40.04 21.848l-3.545 1.742c-13.995 6.822-28.395 13.16-43.149 19.013 18.311 2.347 37.5 5.612 58.259 9.741a1606.338 1606.338 0 0 1 22.167 4.587l.546.116c1.823.39 4.49.963 7.206 1.547l.79.17.67.144 8.978 1.932c33.235 7.141 65.187 16.767 99.955 29.421 6.882 2.505 20.702 7.83 35.354 13.494l1.397.54 2.104.814 5.734 2.218 1.186.459 1.184.457 1.18.457.589.227 1.174.454c15.816 6.112 30.234 11.658 35.388 13.44 21.211 7.333 33.173 8.99 37.538 6.817 5.316-2.639 7.256-16.487.181-37.227-6.776-19.862-20.035-40.28-37.75-57.391a17.321 17.321 0 0 1-1.364-1.301 163.45 163.45 0 0 0-16.76-13.851c-39.92-28.708-76.559-40.273-110.741-39.013Zm-363.189-682.71c-21.335 41.722-48.617 77.469-82.97 107.445l-1.762 1.528-1.601 1.447c-63.82 56.831-150.485 69.324-229.37 39.102l-2.413-.939c-53.87-21.277-97.161-60.008-121.288-108.111-17.116 64.3-52.116 124.132-100.295 176.37-44.41 48.15-98.433 87.694-149.551 111.41-18.196 8.199-36.987 15.34-56.264 21.436.285 13.154 1.628 24.297 5.201 36.687 5.823 20.19 16.397 36.456 33.027 47.773 10.242 6.978 19.873 14.696 29.97 23.876.289.13.572.262.853.395a17.305 17.305 0 0 1 8.217 8.117 577.196 577.196 0 0 1 10.72 10.646c1.921 1.956 5.564 5.734 9.352 9.677l.633.658.95.99.631.658a5069.179 5069.179 0 0 1 10.529 11l.064.067-.066-.066 1.501 1.557c7.482 7.738 13.11 13.286 18.537 18.19 9.855 8.906 18.325 14.912 26.342 18.542 44.445 20.159 76.579 39.66 101.17 60.381 6.024 5.077 10.953 9.492 15.63 14.11l.847.843c9.157 9.153 17.532 19.302 31.561 37.067 13.115 16.606 20.965 25.296 32.38 34.849 4.373 3.66 9.06 7.203 14.161 10.68 38.316 26.089 80.517 42.341 131.14 51.877 40.68 7.662 79.963 10.645 153.887 13.186 122.759 4.206 244.878-18.72 344.415-67.238 110.525-53.876 189.05-136.595 225.731-245.681l.17-.506.2-.494c52.892-130.222 42.351-286.933-34.87-414.042-13.106 31.121-32.501 65.075-56.138 93.98-42.96 52.536-95.796 84.426-158.122 86.76-55.615 2.082-133.768-37.048-169.892-91.173-22.503-33.76-33.224-64.246-43.217-123.054Zm438.982 570.254-.685.976c-19.79 27.988-42.92 53.56-69.116 76.64 39.871.23 81.626 14.416 125.05 45.644a192.064 192.064 0 0 1 20.153 16.727c11.07 9.063 24.617 17.063 36.655 21.874 5.374 2.147 10.055 3.489 13.412 3.934l-.15-.023.05-.122c.954-2.823.695-8.349-1.867-17.417l-.364-1.258c-3.78-12.8-9.887-26.02-22.703-50.774-7.361-14.265-14.33-25.527-23.367-36.522-1.21-1.232-2.259-2.467-3.125-3.696-4.978-5.729-10.596-11.468-17.204-17.608-17.493-16.23-37.345-29.99-56.74-38.375Zm-1298.63-79.705c-22.227 9.98-40.215 22.095-55.404 36.127a17.277 17.277 0 0 1-4.074 3.876c-10.918 10.685-20.363 22.418-28.927 35.11-3.921 5.798-8.11 12.851-12.095 20.22l-1.582 2.963a328.328 328.328 0 0 0-2.005 3.865l-.562 1.106c-8.487 16.779-15.105 33.463-14.529 39.418 1.056 10.955 3.5 14.464 7.684 15.754 5.238 1.615 13.982.838 28.015-2.524a499.856 499.856 0 0 0 8.016-2.005l1.76-.453.435-.111 1.8-.462c1.258-.321 11.09-3.19 22.086-6.38l.883-.257.442-.128.888-.258.445-.129.892-.258 2.235-.648 2.618-.757c7.39-2.136 14.47-4.168 19.064-5.442 5.412-1.5 10.598-2.9 15.594-4.206 21.972-5.74 39.44-9.459 52.342-10.757a249.448 249.448 0 0 1 7.329-5.999c29.961-23.567 74.078-47.35 101.28-54.04 18.019-4.431 42.277-7.743 65.025-9.652-3.35-3.066-6.743-6.322-10.48-10.047l-1.162-1.16c-2.54-2.55-5.249-5.32-8.213-8.395l-.617-.641.03.03c-.445-.471-5.204-5.452-10.297-10.76l-.546-.57-1.383-1.44-.71-.74c-3.66-3.81-7.14-7.417-8.956-9.266-4.97-5.059-9.661-9.672-14.182-13.917-41.145-16.047-123.831-14.689-163.139 2.933Zm1337.675 11.568-.638 1.4a427.414 427.414 0 0 1-19.403 37.185c21.602 10.148 42.692 25.115 61.39 42.464 8.664 8.049 15.933 15.612 22.335 23.254.274.227.602.483.979.76 1.7 1.255 4.03 2.699 6.791 4.187 6.107 3.289 13.61 6.415 20.979 8.678 7.75 2.379 14.83 3.645 20.123 3.614 2.21-.012 3.878-.25 4.897-.595l-.401.117.012-.146c.03-.496.04-1.323-.063-2.555l-.061-.65c-.436-4.168-2.093-9.691-4.854-16.064-4.76-10.986-12.365-23.494-19.504-33.163-12.015-16.247-29.94-32.459-48.122-44.835-9.591-6.528-31.704-18.072-44.46-23.651ZM816.392 1456.539c-30.452 8.069-62.81 21.206-83.453 31.968-38.352 19.954-94.295 80.933-84.224 96.243 3.46 5.267 19.115 7.025 43.383 2.424 9.537-1.807 19.792-4.44 30.573-7.732 6.571-2.005 12.925-4.124 19.593-6.48 1.01-.357 3.114-1.113 5.276-1.89l.684-.246 1.35-.484c17.77-16.462 38.872-30.717 64.954-42.428 30.725-13.774 79.793-19.385 124.306-16.417-11.213-13.293-19.109-28.983-24.14-46.426a171.19 171.19 0 0 1-2.105-8.011l-.254-.15c-19.871-11.997-53.793-11.539-95.943-.37ZM408.602 350.27C266.752 413.815 153.21 530.542 85.107 692.25 40.04 799.238 25.926 876.186 39.865 919.755c10.885 34.02 40.261 47.236 90.48 38.913l-.673.245c34.21-12.44 92.941-39.974 153.811-71.036 11.323-5.782 19.832-10.112 26.624-13.515l1.94-.97c7.571-3.779 12.935-6.358 17.85-8.581l.611-.276c.509-.23 1.013-.454 1.515-.677l.614-.272 1.331-.583a376.21 376.21 0 0 1 4.733-2.02c18.285-7.67 31.825-10.917 44.056-9.226 15.877 2.195 26.947 12.59 32.826 29.315 4.647 13.218 6.6 31.355 6.6 57.116 0 88.936 25.553 129.297 77.492 140.394 23.61 5.044 53.25 4.45 91.695-1.22 2.9-.429 5.64-.84 8.294-1.251l1.758-.274.871-.138 1.73-.275c1.15-.185 2.29-.371 3.431-.56l1.71-.286c1.142-.192 2.285-.388 3.438-.59l1.737-.305c18.625-3.302 40.543-8.063 94.121-19.898 28.174-6.223 48.227-10.456 67.587-14.126l1.658-.313c1.104-.208 2.207-.415 3.31-.62l1.654-.306 1.654-.304 1.657-.302a952.047 952.047 0 0 0 18.876-3.639c5.893-1.196 17.592-3.762 29.679-6.423l1.32-.29 1.673-.37 1.167-.256 1.165-.257c13.973-3.077 27.4-6.031 31.899-6.889 22.165-4.225 36.41-4.777 49.013-.268 28.747 10.285 36.045 38.265 36.57 108.55.071 9.597-7.652 17.434-17.251 17.506-9.6.07-17.439-7.65-17.51-17.246-.41-54.929-5.148-73.096-13.522-76.091-5.048-1.806-14.369-1.445-30.79 1.685a91.4 91.4 0 0 0-.561.11l-1.39.28c-5.392 1.107-16.72 3.601-28.662 6.233l-1.282.282-.642.141-1.308.289-.654.144-3.47.763c-11.534 2.539-22.63 4.966-28.528 6.163a986.837 986.837 0 0 1-19.565 3.772l-2.14.39-4.278.794c-19.98 3.736-40.372 8.024-69.829 14.53-76.405 16.878-89.314 19.568-119.516 24.023-42.187 6.223-75.633 6.894-104.034.826-69.842-14.922-104.99-70.437-104.99-174.378 0-22.15-1.592-36.946-4.632-45.594-1.83-5.206-2.827-6.142-4.794-6.414-7.941-1.098-20.232 3.355-55.915 21.13l-4.788 2.394a2898.425 2898.425 0 0 0-17.998 9.122c-51.46 26.26-101.262 49.974-137.276 64.768 31.746 158.09 150.41 290.226 317.817 365.754 166.522 75.13 357.58 82.733 504.866 16.372 46.796-21.713 97.114-58.544 138.453-103.366 48.062-52.11 81.686-111.97 95.653-175.717a1007.067 1007.067 0 0 0 9.213-47.39l.723-4.352c.073-.743.194-1.474.359-2.19 15.76-97.12 15.124-187.66-.72-270.195a17.233 17.233 0 0 1-.7-3.57c-13.157-66.528-36.244-127.81-68.63-183.094-72.905-124.448-190.876-213.444-331.017-254.152-137.832-40.037-287.71-30.435-419.432 28.574Zm1757.882 464.175-.36.195c1.143 69.62-13.36 170.377-35.88 246.57.493.553.955 1.145 1.384 1.774 70.948 104.168 97.867 229.634 82.411 347.828 41.173-5.01 107.84-38.757 145.759-81.215 16.572-18.549 23.6-28.27 34.105-51.617a259.192 259.192 0 0 0 3.289-7.64c2.114-5.122 2.744-7.977 4.141-17.872-7.632-3.041-15.347-7.267-24.565-13.02l-.058-.038c-.542-.342-2.773-1.746-5.094-3.2l-.91-.57a483.294 483.294 0 0 0-4.604-2.856c-3.497-2.115-6.27-3.634-8.763-4.778-3.87-1.775-6.881-2.555-9.476-2.555-6.987 0-11.524 6.252-12.33 19.394-.587 9.578-8.83 16.867-18.412 16.28-9.581-.588-16.872-8.828-16.285-18.407 1.802-29.365 18.24-52.018 47.027-52.018 8.125 0 15.884 2.01 23.977 5.723 3.868 1.775 7.724 3.887 12.255 6.627a357.19 357.19 0 0 1 5.635 3.493l2.742 1.73c1.076.678 1.9 1.196 2.702 1.696 12.68 7.912 20.755 11.684 29.893 13.278.562-.037 1.13-.055 1.705-.055 1.56 0 5.51-1.979 10.172-6.088 5.254-4.631 10.343-11.017 13.685-17.051 12.925-23.348 17.623-74.055 9.766-128.148-9.276-63.86-34.028-124.61-72.804-170.552-22.685-26.874-63.848-57.736-104.603-76.573-46.545-21.514-87.633-25.841-116.504-10.335Zm-572.825 406.488c16.208 56.34 102.374 70.805 163.164 80.97-51.578 17.158-110.065 8.905-157.385-16.29-26.636-11.38-49.753-55.21-5.779-64.68Zm537.459-414.686-.068.632c-5.02 45.502-15.938 93.317-34.03 143.427-22.392 61.958-77.869 135.606-144.957 168.986-23.585 11.73-67.046 23.552-106.764 25.244-44.263 1.885-82.82-7.854-112-31.75 6.773 24.194 15.059 41.772 27.25 60.06 29.353 43.98 96.019 77.36 139.668 75.726 51.16-1.916 95.354-28.59 132.51-74.028 27.26-33.337 48.58-74.706 59.41-107.833 24.75-75.663 41.137-185.647 39.123-256.299-.04-1.392-.088-2.78-.142-4.165Zm-446.925-202.143.353 2.068c14.274 84.797 8.712 180.444-30.349 288.62-22.393 61.957-77.87 135.605-144.956 168.984-25.49 12.682-78.106 25.744-123.609 26.118-50.328.414-92.281-13.143-120.89-43.41 9.773 61.578 55.267 113.945 118.324 138.85 68.443 27.033 143.114 16.323 197.536-33.277l.37-.328c53.993-46.47 89.192-109.088 110.762-189.789 16.836-62.994 24.147-125.836 30.4-232.787 2.941-50.539-11.146-93.01-37.94-125.05Zm193.009 15.786a668.711 668.711 0 0 0-8.476 3.586l-4.208 1.832c-52.447 23.046-98.981 51.598-106.69 70.764a17.512 17.512 0 0 1-1.144 2.33c.745 10.576.809 21.507.153 32.774-1.145 19.582-2.326 37.731-3.596 54.712 33.84-63.25 88.102-95.157 144.165-80.81 69.094 17.705 99.39 99.707 77.983 189.114l-.682 2.785c-23.037 91.787-91.877 149.352-156.735 136.586-41.766-8.16-73.71-39.091-87.608-82.682a709.168 709.168 0 0 1-5.046 20.03 580.73 580.73 0 0 1-8.774 29.698c-1.083 9.96 1.414 23 6.728 37.27a171.73 171.73 0 0 0 7.39 16.931c1.91 3.803 3.75 7.088 4.646 8.473 22.247 34.382 59.836 48.607 108.51 46.533 34.68-1.477 73.405-12.01 92.758-21.636 58.003-28.86 108.138-95.416 127.75-149.677 34.409-95.307 41.3-181.277 30.692-258.12-11.736-17.958-26.67-34.325-45.31-48.918-40.128-31.418-118.224-34.055-172.506-11.575Zm-418.412-77.132c-45.57 8.116-92.746 42.05-132.97 92.077-33.65 41.847-58.25 90.657-63.173 121.849 13.86 72.622 16.512 150.903 7.296 233.879.196.392.38.793.55 1.205 18.339 44.425 58.369 63.84 114.854 63.376 40.12-.33 87.555-12.105 108.405-22.479 58.004-28.86 108.139-95.416 127.75-149.677 38.018-105.289 42.392-197.339 27.476-278.363a460.736 460.736 0 0 0-4.213-20.28l-.273-1.172c-.291-1.244-.706-3.003-1.13-4.795l-.168-.718a928.528 928.528 0 0 1-1.372-5.87l-.069-.306-.027-.124a17.444 17.444 0 0 1-.403-3.57c-46.707-27.985-110.4-37.884-182.533-25.032Zm304.563 313.25c-19.645 75.97 11.776 133.775 61.311 143.454 44.98 8.854 98.534-36.454 116.917-113.354 17.498-73.082-5.465-135.236-52.801-147.367-50.588-12.945-103.144 31.154-125.427 117.268Zm-306.25-220.997c69.094 17.705 99.39 99.707 77.983 189.114l-.683 2.786c-23.036 91.786-91.877 149.351-156.734 136.585-70.233-13.722-112.691-91.832-88.275-186.254 26.578-102.708 95.655-160.67 167.708-142.231ZM1323.048 785.94c-19.645 75.97 11.777 133.775 61.312 143.453 44.98 8.854 98.533-36.454 116.916-113.353 17.499-73.083-5.464-135.237-52.8-147.367-50.589-12.945-103.144 31.154-125.428 117.267Zm689.47-750.483c-30.216 1.618-69.156 7.503-106.006 15.808-70.276 15.829-152.422 54.52-236.645 108.178-66.727 42.512-130.836 92.434-165.126 126.468-47.58 47.182-75.737 87.931-67.416 109.01 5.026 12.766 32.273 24.238 82.196 31.768 43.042 6.493 90.08 9.51 192.645 13.656 58.32 2.357 86.58 3.55 112.3 4.925l3.779.205c1.674.091 3.344.184 5.016.278l2.51.142 1.26.072 2.527.146 2.547.15c4.688.275 9.5.567 14.596.883 3.056.188 5.077.426 7.283 1.066 1.6.464 3.128 1.085 4.839 2.18 4.599 2.944 8.184 7.783 8.109 14.953-.07 6.567-3.09 10.886-7.042 13.853a17.972 17.972 0 0 1-4.156 2.346c-2.927 1.197-5.835 1.732-12.547 2.7-1.275.184-9.409 1.258-17.973 2.405l-3.861.52c-5.984.805-11.706 1.588-14.96 2.068-12.637 1.863-22.475 3.653-29.452 5.45-.686.176-1.333.35-1.94.521l-.018.004-.005.139c-2.73 43.254-8.34 93.881-14.52 130.92l-.179 1.038.35-.135c9.032-3.66 20.129-8.496 32.856-14.301l2.262-1.035c12.633-5.788 26.697-12.457 40.672-19.24l2.465-1.199 1.23-.6 2.46-1.2c19.644-9.601 38.665-19.208 52.781-26.667 125.144-66.03 221.376-168.867 213.49-228.386-6.53-49.193-50.876-71.837-127.216-74.16-27.888-.848-56.89 1.052-91.213 5.112-7.662.906-32.488 4.1-37.014 4.608-5.404.606-9.245.917-12.319.934-2.516.014-4.67-.147-6.937-.69-2.362-.565-4.621-1.478-6.915-3.148-4.202-3.06-7.132-7.895-7.389-13.636-.26-5.36 1.252-8.638 3.793-12.224.97-1.369 2.093-2.683 3.447-4.11 1.84-1.939 4.251-4.224 7.333-6.976l.944-.84c5.384-4.766 12.656-10.867 23.216-19.52l3.108-2.542c2.845-2.325 9.597-7.813 16.593-13.498l.977-.794.49-.397.977-.795.403-.327.803-.653c7.218-5.863 14.015-11.384 16.325-13.265 16.012-13.041 29.118-23.838 41.721-34.42a2034.965 2034.965 0 0 0 21.627-18.4c29.328-25.328 51.85-46.525 67.01-63.517 8.12-9.102 13.864-16.73 16.989-22.482.139-.256.27-.505.396-.747l.176-.357-.504-.14a50.444 50.444 0 0 0-4.133-.914l-1.193-.205c-9.137-1.49-22.067-1.83-37.822-.986Z" fill="#564341"/>
  </g>
</svg>
